<svg xmlns="http://www.w3.org/2000/svg" xmlns:xlink="http://www.w3.org/1999/xlink" width="500" zoomAndPan="magnify" viewBox="0 0 375 374.999991" height="500" preserveAspectRatio="xMidYMid meet" version="1.2"><defs><clipPath id="7c59e3cc99"><path d="M 263.160156 183.503906 L 338.160156 183.503906 L 338.160156 244 L 263.160156 244 Z M 263.160156 183.503906 "/></clipPath><clipPath id="8ef7c3c0cb"><path d="M 36.839844 140.625 L 111.839844 140.625 L 111.839844 201.164062 L 36.839844 201.164062 Z M 36.839844 140.625 "/></clipPath></defs><g id="2b863a41dd"><rect x="0" width="375" y="0" height="374.999991" style="fill:#ffffff;fill-opacity:1;stroke:none;"/><rect x="0" width="375" y="0" height="374.999991" style="fill:#ffffff;fill-opacity:1;stroke:none;"/><g style="fill:#140f54;fill-opacity:1;"><g transform="translate(103.807501, 186.763871)"><path style="stroke:none" d="M 24.984375 -29.5 L 10.75 -29.5 L 10.75 -22.84375 L 21.34375 -22.84375 L 21.34375 -14.75 L 10.75 -14.75 L 10.75 0 L 1.734375 0 L 1.734375 -37.59375 L 24.984375 -37.59375 Z M 24.984375 -29.5 "/></g></g><g style="fill:#140f54;fill-opacity:1;"><g transform="translate(130.526255, 186.763871)"><path style="stroke:none" d="M 1.734375 -29.890625 L 9.25 -29.890625 L 9.25 -14.859375 C 9.25 -14.285156 9.347656 -13.628906 9.546875 -12.890625 C 9.773438 -12.003906 10.117188 -11.195312 10.578125 -10.46875 C 11.847656 -8.539062 13.660156 -7.578125 16.015625 -7.578125 C 18.597656 -7.578125 20.46875 -8.5625 21.625 -10.53125 C 22.050781 -11.21875 22.359375 -12.023438 22.546875 -12.953125 C 22.703125 -13.609375 22.78125 -14.265625 22.78125 -14.921875 L 22.78125 -29.890625 L 30.875 -29.890625 L 30.875 0 L 22.78125 0 L 22.78125 -3.125 C 20.894531 -1.039062 18.46875 0 15.5 0 C 11.675781 0.0390625 8.4375 -1.328125 5.78125 -4.109375 C 3.082031 -6.847656 1.734375 -10.238281 1.734375 -14.28125 Z M 1.734375 -29.890625 "/></g></g><g style="fill:#140f54;fill-opacity:1;"><g transform="translate(163.143946, 186.763871)"><path style="stroke:none" d="M 23.1875 -29.78125 L 23.1875 -21.6875 L 16.53125 -21.6875 L 16.53125 0 L 8.4375 0 L 8.4375 -21.6875 L 1.734375 -21.6875 L 1.734375 -29.78125 L 8.4375 -29.78125 L 8.4375 -40.1875 L 16.53125 -40.1875 L 16.53125 -29.78125 Z M 23.1875 -29.78125 "/></g></g><g style="fill:#140f54;fill-opacity:1;"><g transform="translate(188.069885, 186.763871)"><path style="stroke:none" d="M 1.734375 -29.890625 L 9.25 -29.890625 L 9.25 -14.859375 C 9.25 -14.285156 9.347656 -13.628906 9.546875 -12.890625 C 9.773438 -12.003906 10.117188 -11.195312 10.578125 -10.46875 C 11.847656 -8.539062 13.660156 -7.578125 16.015625 -7.578125 C 18.597656 -7.578125 20.46875 -8.5625 21.625 -10.53125 C 22.050781 -11.21875 22.359375 -12.023438 22.546875 -12.953125 C 22.703125 -13.609375 22.78125 -14.265625 22.78125 -14.921875 L 22.78125 -29.890625 L 30.875 -29.890625 L 30.875 0 L 22.78125 0 L 22.78125 -3.125 C 20.894531 -1.039062 18.46875 0 15.5 0 C 11.675781 0.0390625 8.4375 -1.328125 5.78125 -4.109375 C 3.082031 -6.847656 1.734375 -10.238281 1.734375 -14.28125 Z M 1.734375 -29.890625 "/></g></g><g style="fill:#140f54;fill-opacity:1;"><g transform="translate(220.687576, 186.763871)"><path style="stroke:none" d="M 9.828125 -25.328125 C 10.484375 -27.179688 11.582031 -28.472656 13.125 -29.203125 C 14.625 -29.929688 16.878906 -30.296875 19.890625 -30.296875 L 19.890625 -22.03125 C 16.960938 -22.03125 14.515625 -21.03125 12.546875 -19.03125 C 10.734375 -17.25 9.828125 -15.300781 9.828125 -13.1875 L 9.828125 0 L 1.734375 0 L 1.734375 -29.78125 L 9.828125 -29.78125 Z M 9.828125 -25.328125 "/></g></g><g style="fill:#140f54;fill-opacity:1;"><g transform="translate(241.449542, 186.763871)"><path style="stroke:none" d="M 30.421875 -13.59375 C 30.453125 -12.78125 30.453125 -12.296875 30.421875 -12.140625 L 8.671875 -12.203125 C 8.984375 -11.316406 9.539062 -10.46875 10.34375 -9.65625 C 11.851562 -8.226562 13.59375 -7.515625 15.5625 -7.515625 C 17.632812 -7.597656 19.367188 -8.332031 20.765625 -9.71875 L 20.984375 -9.953125 L 28.515625 -7.578125 C 26.847656 -4.992188 25.113281 -3.144531 23.3125 -2.03125 C 21.257812 -0.71875 18.691406 -0.0390625 15.609375 0 C 11.523438 0.0390625 8.019531 -1.382812 5.09375 -4.28125 C 2.15625 -7.164062 0.671875 -10.671875 0.640625 -14.796875 C 0.597656 -18.890625 2.023438 -22.398438 4.921875 -25.328125 C 7.804688 -28.253906 11.3125 -29.738281 15.4375 -29.78125 C 19.519531 -29.820312 23.03125 -28.394531 25.96875 -25.5 C 28.894531 -22.613281 30.378906 -19.109375 30.421875 -14.984375 Z M 15.5 -22.203125 C 13.457031 -22.203125 11.722656 -21.488281 10.296875 -20.0625 C 9.554688 -19.257812 9.035156 -18.453125 8.734375 -17.640625 L 22.328125 -17.640625 C 22.015625 -18.453125 21.472656 -19.28125 20.703125 -20.125 C 19.234375 -21.507812 17.5 -22.203125 15.5 -22.203125 Z M 15.5 -22.203125 "/></g></g><g style="fill:#140f54;fill-opacity:1;"><g transform="translate(79.169642, 222.551463)"><path style="stroke:none" d="M 33.59375 -4.734375 C 29.9375 -1.691406 25.753906 -0.171875 21.046875 -0.171875 C 15.722656 -0.171875 11.175781 -2.0625 7.40625 -5.84375 C 3.625 -9.613281 1.734375 -14.160156 1.734375 -19.484375 C 1.734375 -24.847656 3.625 -29.414062 7.40625 -33.1875 C 11.175781 -36.96875 15.722656 -38.859375 21.046875 -38.859375 C 25.785156 -38.859375 29.96875 -37.316406 33.59375 -34.234375 L 27.8125 -28.515625 C 25.84375 -30.015625 23.585938 -30.765625 21.046875 -30.765625 C 17.960938 -30.765625 15.320312 -29.664062 13.125 -27.46875 C 10.925781 -25.269531 9.828125 -22.609375 9.828125 -19.484375 C 9.828125 -16.398438 10.925781 -13.757812 13.125 -11.5625 C 15.320312 -9.363281 17.960938 -8.265625 21.046875 -8.265625 C 23.585938 -8.265625 25.84375 -9.019531 27.8125 -10.53125 Z M 33.59375 -4.734375 "/></g></g><g style="fill:#140f54;fill-opacity:1;"><g transform="translate(116.240461, 222.551463)"><path style="stroke:none" d="M 9.828125 -25.328125 C 10.484375 -27.179688 11.582031 -28.472656 13.125 -29.203125 C 14.625 -29.929688 16.878906 -30.296875 19.890625 -30.296875 L 19.890625 -22.03125 C 16.960938 -22.03125 14.515625 -21.03125 12.546875 -19.03125 C 10.734375 -17.25 9.828125 -15.300781 9.828125 -13.1875 L 9.828125 0 L 1.734375 0 L 1.734375 -29.78125 L 9.828125 -29.78125 Z M 9.828125 -25.328125 "/></g></g><g style="fill:#140f54;fill-opacity:1;"><g transform="translate(137.002427, 222.551463)"><path style="stroke:none" d="M 23.125 -29.890625 L 31.234375 -29.890625 L 31.234375 0 L 23.125 0 L 23.125 -3.359375 C 21.46875 -1.191406 18.960938 -0.109375 15.609375 -0.109375 C 11.523438 -0.078125 8.019531 -1.503906 5.09375 -4.390625 C 2.15625 -7.285156 0.671875 -10.796875 0.640625 -14.921875 C 0.597656 -19.003906 2.023438 -22.507812 4.921875 -25.4375 C 7.804688 -28.375 11.3125 -29.859375 15.4375 -29.890625 C 18.832031 -29.890625 21.394531 -28.789062 23.125 -26.59375 Z M 20.703125 -9.828125 C 22.128906 -11.253906 22.84375 -12.988281 22.84375 -15.03125 C 22.84375 -17.113281 22.109375 -18.847656 20.640625 -20.234375 C 19.179688 -21.703125 17.46875 -22.398438 15.5 -22.328125 C 13.457031 -22.328125 11.722656 -21.613281 10.296875 -20.1875 C 8.867188 -18.757812 8.15625 -17.023438 8.15625 -14.984375 C 8.15625 -12.972656 8.882812 -11.234375 10.34375 -9.765625 C 11.769531 -8.347656 13.507812 -7.640625 15.5625 -7.640625 C 17.632812 -7.710938 19.347656 -8.441406 20.703125 -9.828125 Z M 20.703125 -9.828125 "/></g></g><g style="fill:#140f54;fill-opacity:1;"><g transform="translate(169.967124, 222.551463)"><path style="stroke:none" d="M 18.21875 -32.265625 C 17.332031 -32.265625 16.578125 -31.957031 15.953125 -31.34375 C 15.335938 -30.6875 15.03125 -29.914062 15.03125 -29.03125 L 15.03125 -25.84375 L 20.984375 -25.84375 L 20.984375 -17.75 L 15.03125 -17.75 L 15.03125 0 L 6.9375 0 L 6.9375 -17.8125 L 1.734375 -17.8125 L 1.734375 -25.84375 L 6.9375 -25.84375 L 6.9375 -32.265625 C 6.9375 -34.503906 7.726562 -36.394531 9.3125 -37.9375 C 10.894531 -39.519531 12.800781 -40.3125 15.03125 -40.3125 L 20.984375 -40.3125 L 20.984375 -32.265625 Z M 18.21875 -32.265625 "/></g></g><g style="fill:#140f54;fill-opacity:1;"><g transform="translate(192.695408, 222.551463)"><path style="stroke:none" d="M 23.1875 -29.78125 L 23.1875 -21.6875 L 16.53125 -21.6875 L 16.53125 0 L 8.4375 0 L 8.4375 -21.6875 L 1.734375 -21.6875 L 1.734375 -29.78125 L 8.4375 -29.78125 L 8.4375 -40.1875 L 16.53125 -40.1875 L 16.53125 -29.78125 Z M 23.1875 -29.78125 "/></g></g><g style="fill:#140f54;fill-opacity:1;"><g transform="translate(217.621346, 222.551463)"><path style="stroke:none" d="M 30.421875 -13.59375 C 30.453125 -12.78125 30.453125 -12.296875 30.421875 -12.140625 L 8.671875 -12.203125 C 8.984375 -11.316406 9.539062 -10.46875 10.34375 -9.65625 C 11.851562 -8.226562 13.59375 -7.515625 15.5625 -7.515625 C 17.632812 -7.597656 19.367188 -8.332031 20.765625 -9.71875 L 20.984375 -9.953125 L 28.515625 -7.578125 C 26.847656 -4.992188 25.113281 -3.144531 23.3125 -2.03125 C 21.257812 -0.71875 18.691406 -0.0390625 15.609375 0 C 11.523438 0.0390625 8.019531 -1.382812 5.09375 -4.28125 C 2.15625 -7.164062 0.671875 -10.671875 0.640625 -14.796875 C 0.597656 -18.890625 2.023438 -22.398438 4.921875 -25.328125 C 7.804688 -28.253906 11.3125 -29.738281 15.4375 -29.78125 C 19.519531 -29.820312 23.03125 -28.394531 25.96875 -25.5 C 28.894531 -22.613281 30.378906 -19.109375 30.421875 -14.984375 Z M 15.5 -22.203125 C 13.457031 -22.203125 11.722656 -21.488281 10.296875 -20.0625 C 9.554688 -19.257812 9.035156 -18.453125 8.734375 -17.640625 L 22.328125 -17.640625 C 22.015625 -18.453125 21.472656 -19.28125 20.703125 -20.125 C 19.234375 -21.507812 17.5 -22.203125 15.5 -22.203125 Z M 15.5 -22.203125 "/></g></g><g style="fill:#140f54;fill-opacity:1;"><g transform="translate(248.67756, 222.551463)"><path style="stroke:none" d="M 9.828125 -25.328125 C 10.484375 -27.179688 11.582031 -28.472656 13.125 -29.203125 C 14.625 -29.929688 16.878906 -30.296875 19.890625 -30.296875 L 19.890625 -22.03125 C 16.960938 -22.03125 14.515625 -21.03125 12.546875 -19.03125 C 10.734375 -17.25 9.828125 -15.300781 9.828125 -13.1875 L 9.828125 0 L 1.734375 0 L 1.734375 -29.78125 L 9.828125 -29.78125 Z M 9.828125 -25.328125 "/></g></g><g style="fill:#140f54;fill-opacity:1;"><g transform="translate(269.439526, 222.551463)"><path style="stroke:none" d="M 13.765625 0 C 11.753906 0 10 -0.304688 8.5 -0.921875 C 7.300781 -1.347656 6.066406 -2.140625 4.796875 -3.296875 C 2.597656 -5.335938 1.597656 -7.921875 1.796875 -11.046875 L 1.796875 -11.6875 L 8.265625 -11.5625 L 8.796875 -11.5625 L 8.796875 -11.109375 C 8.828125 -10.140625 9.035156 -9.347656 9.421875 -8.734375 C 10.078125 -7.617188 11.523438 -7.0625 13.765625 -7.0625 C 15.609375 -7.0625 16.9375 -7.269531 17.75 -7.6875 C 18.175781 -7.882812 18.46875 -8.132812 18.625 -8.4375 C 18.695312 -8.550781 18.734375 -8.671875 18.734375 -8.796875 L 18.796875 -9.078125 C 18.796875 -9.890625 18.160156 -10.546875 16.890625 -11.046875 C 16.390625 -11.234375 15.8125 -11.382812 15.15625 -11.5 C 14.65625 -11.625 14.09375 -11.722656 13.46875 -11.796875 C 11.15625 -12.023438 9.226562 -12.488281 7.6875 -13.1875 C 6.144531 -13.800781 4.875 -14.648438 3.875 -15.734375 C 2.488281 -17.304688 1.796875 -19.117188 1.796875 -21.171875 C 1.796875 -22.441406 2.023438 -23.613281 2.484375 -24.6875 C 2.828125 -25.539062 3.289062 -26.296875 3.875 -26.953125 C 5.957031 -29.335938 9.289062 -30.53125 13.875 -30.53125 C 16.613281 -30.53125 18.925781 -29.992188 20.8125 -28.921875 C 22.28125 -28.109375 23.457031 -27.007812 24.34375 -25.625 C 25.039062 -24.582031 25.523438 -23.363281 25.796875 -21.96875 C 25.867188 -21.507812 25.925781 -21.066406 25.96875 -20.640625 L 25.96875 -19.4375 L 18.96875 -19.4375 L 18.96875 -20.296875 C 18.925781 -20.453125 18.90625 -20.609375 18.90625 -20.765625 C 18.789062 -21.179688 18.640625 -21.523438 18.453125 -21.796875 C 17.597656 -22.953125 16.070312 -23.53125 13.875 -23.53125 C 10.632812 -23.53125 9.015625 -22.859375 9.015625 -21.515625 C 9.015625 -20.816406 9.398438 -20.253906 10.171875 -19.828125 C 10.984375 -19.328125 12.351562 -18.960938 14.28125 -18.734375 C 18.71875 -18.273438 21.9375 -16.867188 23.9375 -14.515625 C 25.289062 -12.929688 25.96875 -11.117188 25.96875 -9.078125 L 25.96875 -8.671875 L 25.90625 -8.15625 C 25.90625 -7.65625 25.847656 -7.191406 25.734375 -6.765625 C 25.421875 -5.535156 24.84375 -4.4375 24 -3.46875 C 23.03125 -2.3125 21.679688 -1.445312 19.953125 -0.875 C 18.210938 -0.289062 16.148438 0 13.765625 0 Z M 13.765625 0 "/></g></g><g clip-rule="nonzero" clip-path="url(#7c59e3cc99)"><path style=" stroke:none;fill-rule:evenodd;fill:#140f54;fill-opacity:1;" d="M 287.839844 243.960938 C 278.96875 243.960938 270.636719 242.917969 263.398438 241.078125 C 268.378906 241.835938 273.707031 242.242188 279.246094 242.242188 C 307.003906 242.242188 329.507812 231.996094 329.507812 219.351562 C 329.507812 210.753906 319.089844 203.261719 303.6875 199.34375 C 323.683594 202.371094 338.101562 210.953125 338.101562 221.078125 C 338.101562 233.714844 315.597656 243.960938 287.839844 243.960938 Z M 288.773438 195.546875 L 288.773438 195.363281 C 299.855469 195.363281 300.65625 193.566406 300.65625 183.472656 L 300.84375 183.472656 C 300.84375 193.566406 301.652344 195.363281 312.734375 195.363281 L 312.734375 195.546875 C 301.652344 195.546875 300.84375 197.339844 300.84375 207.433594 L 300.65625 207.433594 C 300.65625 197.339844 299.855469 195.546875 288.773438 195.546875 "/></g><g clip-rule="nonzero" clip-path="url(#8ef7c3c0cb)"><path style=" stroke:none;fill-rule:evenodd;fill:#140f54;fill-opacity:1;" d="M 87.160156 140.707031 C 96.03125 140.707031 104.363281 141.753906 111.601562 143.59375 C 106.621094 142.835938 101.292969 142.429688 95.753906 142.429688 C 67.996094 142.429688 45.492188 152.675781 45.492188 165.320312 C 45.492188 173.917969 55.910156 181.410156 71.3125 185.324219 C 51.316406 182.300781 36.898438 173.71875 36.898438 163.59375 C 36.898438 150.957031 59.402344 140.707031 87.160156 140.707031 Z M 86.226562 189.121094 L 86.226562 189.308594 C 75.144531 189.308594 74.34375 191.105469 74.34375 201.199219 L 74.15625 201.199219 C 74.15625 191.105469 73.347656 189.308594 62.265625 189.308594 L 62.265625 189.121094 C 73.347656 189.121094 74.15625 187.328125 74.15625 177.234375 L 74.34375 177.234375 C 74.34375 187.328125 75.144531 189.121094 86.226562 189.121094 "/></g><g style="fill:#140f54;fill-opacity:1;"><g transform="translate(94.333972, 232.263486)"><path style="stroke:none" d="M 0.734375 0 L 0.734375 -4.984375 L 2.453125 -4.984375 C 2.960938 -4.984375 3.410156 -4.878906 3.796875 -4.671875 C 4.179688 -4.460938 4.476562 -4.171875 4.6875 -3.796875 C 4.90625 -3.421875 5.015625 -2.988281 5.015625 -2.5 C 5.015625 -2.007812 4.90625 -1.578125 4.6875 -1.203125 C 4.476562 -0.828125 4.179688 -0.53125 3.796875 -0.3125 C 3.410156 -0.101562 2.960938 0 2.453125 0 Z M 1.359375 -0.59375 L 2.453125 -0.59375 C 2.828125 -0.59375 3.160156 -0.671875 3.453125 -0.828125 C 3.742188 -0.992188 3.96875 -1.21875 4.125 -1.5 C 4.289062 -1.789062 4.375 -2.125 4.375 -2.5 C 4.375 -2.875 4.289062 -3.203125 4.125 -3.484375 C 3.957031 -3.765625 3.726562 -3.984375 3.4375 -4.140625 C 3.144531 -4.304688 2.804688 -4.390625 2.421875 -4.390625 L 1.359375 -4.390625 Z M 1.359375 -0.59375 "/></g></g><g style="fill:#140f54;fill-opacity:1;"><g transform="translate(101.955796, 232.263486)"><path style="stroke:none" d="M 0.734375 0 L 0.734375 -4.984375 L 1.359375 -4.984375 L 1.359375 0 Z M 0.734375 0 "/></g></g><g style="fill:#140f54;fill-opacity:1;"><g transform="translate(106.236832, 232.263486)"><path style="stroke:none" d="M 2.953125 0.09375 C 2.585938 0.09375 2.25 0.03125 1.9375 -0.09375 C 1.625 -0.226562 1.351562 -0.410156 1.125 -0.640625 C 0.90625 -0.867188 0.726562 -1.140625 0.59375 -1.453125 C 0.46875 -1.773438 0.40625 -2.125 0.40625 -2.5 C 0.40625 -2.875 0.46875 -3.21875 0.59375 -3.53125 C 0.71875 -3.84375 0.894531 -4.113281 1.125 -4.34375 C 1.351562 -4.570312 1.617188 -4.75 1.921875 -4.875 C 2.234375 -5.007812 2.570312 -5.078125 2.9375 -5.078125 C 3.3125 -5.078125 3.660156 -5.007812 3.984375 -4.875 C 4.304688 -4.738281 4.585938 -4.546875 4.828125 -4.296875 C 5.066406 -4.046875 5.238281 -3.757812 5.34375 -3.4375 L 4.65625 -3.4375 C 4.5 -3.757812 4.269531 -4.007812 3.96875 -4.1875 C 3.675781 -4.363281 3.335938 -4.453125 2.953125 -4.453125 C 2.585938 -4.453125 2.257812 -4.367188 1.96875 -4.203125 C 1.675781 -4.035156 1.445312 -3.804688 1.28125 -3.515625 C 1.125 -3.222656 1.046875 -2.882812 1.046875 -2.5 C 1.046875 -2.113281 1.128906 -1.769531 1.296875 -1.46875 C 1.460938 -1.175781 1.6875 -0.945312 1.96875 -0.78125 C 2.257812 -0.613281 2.59375 -0.53125 2.96875 -0.53125 C 3.300781 -0.53125 3.597656 -0.597656 3.859375 -0.734375 C 4.117188 -0.867188 4.332031 -1.050781 4.5 -1.28125 C 4.664062 -1.519531 4.769531 -1.796875 4.8125 -2.109375 L 2.78125 -2.109375 L 2.78125 -2.703125 L 5.484375 -2.703125 C 5.492188 -2.160156 5.390625 -1.675781 5.171875 -1.25 C 4.960938 -0.832031 4.664062 -0.503906 4.28125 -0.265625 C 3.90625 -0.0234375 3.460938 0.09375 2.953125 0.09375 Z M 2.953125 0.09375 "/></g></g><g style="fill:#140f54;fill-opacity:1;"><g transform="translate(114.314542, 232.263486)"><path style="stroke:none" d="M 0.734375 0 L 0.734375 -4.984375 L 1.359375 -4.984375 L 1.359375 0 Z M 0.734375 0 "/></g></g><g style="fill:#140f54;fill-opacity:1;"><g transform="translate(118.595579, 232.263486)"><path style="stroke:none" d="M 1.9375 0 L 1.9375 -4.390625 L 0.25 -4.390625 L 0.25 -4.984375 L 4.234375 -4.984375 L 4.234375 -4.390625 L 2.5625 -4.390625 L 2.5625 0 Z M 1.9375 0 "/></g></g><g style="fill:#140f54;fill-opacity:1;"><g transform="translate(125.284264, 232.263486)"><path style="stroke:none" d="M 0.125 0 L 2.171875 -4.984375 L 2.75 -4.984375 L 4.8125 0 L 4.140625 0 L 3.671875 -1.140625 L 1.25 -1.140625 L 0.796875 0 Z M 1.484375 -1.71875 L 3.4375 -1.71875 L 2.46875 -4.109375 Z M 1.484375 -1.71875 "/></g></g><g style="fill:#140f54;fill-opacity:1;"><g transform="translate(132.414587, 232.263486)"><path style="stroke:none" d="M 0.734375 0 L 0.734375 -4.984375 L 1.359375 -4.984375 L 1.359375 -0.59375 L 3.78125 -0.59375 L 3.78125 0 Z M 0.734375 0 "/></g></g><g style="fill:#140f54;fill-opacity:1;"><g transform="translate(138.611763, 232.263486)"><path style="stroke:none" d=""/></g></g><g style="fill:#140f54;fill-opacity:1;"><g transform="translate(142.57938, 232.263486)"><path style="stroke:none" d="M 1.9375 0 L 1.9375 -4.390625 L 0.25 -4.390625 L 0.25 -4.984375 L 4.234375 -4.984375 L 4.234375 -4.390625 L 2.5625 -4.390625 L 2.5625 0 Z M 1.9375 0 "/></g></g><g style="fill:#140f54;fill-opacity:1;"><g transform="translate(149.268065, 232.263486)"><path style="stroke:none" d="M 0.734375 0 L 0.734375 -4.984375 L 2.625 -4.984375 C 2.976562 -4.984375 3.28125 -4.914062 3.53125 -4.78125 C 3.789062 -4.65625 3.988281 -4.472656 4.125 -4.234375 C 4.269531 -4.003906 4.34375 -3.722656 4.34375 -3.390625 C 4.34375 -2.984375 4.238281 -2.644531 4.03125 -2.375 C 3.820312 -2.113281 3.535156 -1.941406 3.171875 -1.859375 L 4.421875 0 L 3.671875 0 L 2.453125 -1.78125 L 1.359375 -1.78125 L 1.359375 0 Z M 1.359375 -2.390625 L 2.5625 -2.390625 C 2.925781 -2.390625 3.207031 -2.472656 3.40625 -2.640625 C 3.601562 -2.816406 3.703125 -3.066406 3.703125 -3.390625 C 3.703125 -3.703125 3.601562 -3.945312 3.40625 -4.125 C 3.207031 -4.300781 2.925781 -4.390625 2.5625 -4.390625 L 1.359375 -4.390625 Z M 1.359375 -2.390625 "/></g></g><g style="fill:#140f54;fill-opacity:1;"><g transform="translate(156.320032, 232.263486)"><path style="stroke:none" d="M 0.125 0 L 2.171875 -4.984375 L 2.75 -4.984375 L 4.8125 0 L 4.140625 0 L 3.671875 -1.140625 L 1.25 -1.140625 L 0.796875 0 Z M 1.484375 -1.71875 L 3.4375 -1.71875 L 2.46875 -4.109375 Z M 1.484375 -1.71875 "/></g></g><g style="fill:#140f54;fill-opacity:1;"><g transform="translate(163.450355, 232.263486)"><path style="stroke:none" d="M 0.734375 0 L 0.734375 -4.984375 L 1.3125 -4.984375 L 4.078125 -1.078125 L 4.078125 -4.984375 L 4.6875 -4.984375 L 4.6875 0 L 4.109375 0 L 1.34375 -3.90625 L 1.34375 0 Z M 0.734375 0 "/></g></g><g style="fill:#140f54;fill-opacity:1;"><g transform="translate(171.06506, 232.263486)"><path style="stroke:none" d="M 2.390625 0.09375 C 1.984375 0.09375 1.632812 0.0234375 1.34375 -0.109375 C 1.050781 -0.242188 0.828125 -0.429688 0.671875 -0.671875 C 0.515625 -0.921875 0.429688 -1.207031 0.421875 -1.53125 L 1.046875 -1.53125 C 1.054688 -1.207031 1.179688 -0.953125 1.421875 -0.765625 C 1.671875 -0.585938 1.992188 -0.5 2.390625 -0.5 C 2.742188 -0.5 3.019531 -0.566406 3.21875 -0.703125 C 3.425781 -0.847656 3.53125 -1.046875 3.53125 -1.296875 C 3.53125 -1.523438 3.429688 -1.707031 3.234375 -1.84375 C 3.035156 -1.988281 2.710938 -2.113281 2.265625 -2.21875 C 1.648438 -2.363281 1.195312 -2.550781 0.90625 -2.78125 C 0.625 -3.007812 0.484375 -3.316406 0.484375 -3.703125 C 0.484375 -4.128906 0.644531 -4.460938 0.96875 -4.703125 C 1.289062 -4.953125 1.722656 -5.078125 2.265625 -5.078125 C 2.828125 -5.078125 3.269531 -4.9375 3.59375 -4.65625 C 3.914062 -4.375 4.082031 -3.992188 4.09375 -3.515625 L 3.46875 -3.515625 C 3.46875 -3.816406 3.359375 -4.050781 3.140625 -4.21875 C 2.921875 -4.394531 2.628906 -4.484375 2.265625 -4.484375 C 1.910156 -4.484375 1.628906 -4.410156 1.421875 -4.265625 C 1.222656 -4.128906 1.125 -3.941406 1.125 -3.703125 C 1.125 -3.503906 1.21875 -3.332031 1.40625 -3.1875 C 1.59375 -3.050781 1.929688 -2.921875 2.421875 -2.796875 C 3.054688 -2.640625 3.507812 -2.441406 3.78125 -2.203125 C 4.050781 -1.972656 4.1875 -1.675781 4.1875 -1.3125 C 4.1875 -0.875 4.019531 -0.53125 3.6875 -0.28125 C 3.363281 -0.03125 2.929688 0.09375 2.390625 0.09375 Z M 2.390625 0.09375 "/></g></g><g style="fill:#140f54;fill-opacity:1;"><g transform="translate(177.874836, 232.263486)"><path style="stroke:none" d="M 0.734375 0 L 0.734375 -4.984375 L 3.578125 -4.984375 L 3.578125 -4.40625 L 1.359375 -4.40625 L 1.359375 -2.671875 L 3.40625 -2.671875 L 3.40625 -2.109375 L 1.359375 -2.109375 L 1.359375 0 Z M 0.734375 0 "/></g></g><g style="fill:#140f54;fill-opacity:1;"><g transform="translate(184.050645, 232.263486)"><path style="stroke:none" d="M 3 0.09375 C 2.488281 0.09375 2.035156 -0.015625 1.640625 -0.234375 C 1.253906 -0.453125 0.953125 -0.753906 0.734375 -1.140625 C 0.515625 -1.535156 0.40625 -1.988281 0.40625 -2.5 C 0.40625 -3 0.515625 -3.441406 0.734375 -3.828125 C 0.953125 -4.222656 1.253906 -4.53125 1.640625 -4.75 C 2.035156 -4.96875 2.488281 -5.078125 3 -5.078125 C 3.5 -5.078125 3.941406 -4.96875 4.328125 -4.75 C 4.722656 -4.53125 5.03125 -4.222656 5.25 -3.828125 C 5.46875 -3.441406 5.578125 -3 5.578125 -2.5 C 5.578125 -1.988281 5.46875 -1.535156 5.25 -1.140625 C 5.03125 -0.753906 4.722656 -0.453125 4.328125 -0.234375 C 3.941406 -0.015625 3.5 0.09375 3 0.09375 Z M 1.046875 -2.5 C 1.046875 -2.113281 1.128906 -1.769531 1.296875 -1.46875 C 1.460938 -1.175781 1.691406 -0.945312 1.984375 -0.78125 C 2.273438 -0.613281 2.613281 -0.53125 3 -0.53125 C 3.375 -0.53125 3.707031 -0.613281 4 -0.78125 C 4.289062 -0.945312 4.519531 -1.175781 4.6875 -1.46875 C 4.851562 -1.769531 4.9375 -2.113281 4.9375 -2.5 C 4.9375 -2.882812 4.851562 -3.222656 4.6875 -3.515625 C 4.519531 -3.804688 4.289062 -4.035156 4 -4.203125 C 3.707031 -4.367188 3.375 -4.453125 3 -4.453125 C 2.613281 -4.453125 2.273438 -4.367188 1.984375 -4.203125 C 1.691406 -4.035156 1.460938 -3.804688 1.296875 -3.515625 C 1.128906 -3.222656 1.046875 -2.882812 1.046875 -2.5 Z M 1.046875 -2.5 "/></g></g><g style="fill:#140f54;fill-opacity:1;"><g transform="translate(192.235207, 232.263486)"><path style="stroke:none" d="M 0.734375 0 L 0.734375 -4.984375 L 2.625 -4.984375 C 2.976562 -4.984375 3.28125 -4.914062 3.53125 -4.78125 C 3.789062 -4.65625 3.988281 -4.472656 4.125 -4.234375 C 4.269531 -4.003906 4.34375 -3.722656 4.34375 -3.390625 C 4.34375 -2.984375 4.238281 -2.644531 4.03125 -2.375 C 3.820312 -2.113281 3.535156 -1.941406 3.171875 -1.859375 L 4.421875 0 L 3.671875 0 L 2.453125 -1.78125 L 1.359375 -1.78125 L 1.359375 0 Z M 1.359375 -2.390625 L 2.5625 -2.390625 C 2.925781 -2.390625 3.207031 -2.472656 3.40625 -2.640625 C 3.601562 -2.816406 3.703125 -3.066406 3.703125 -3.390625 C 3.703125 -3.703125 3.601562 -3.945312 3.40625 -4.125 C 3.207031 -4.300781 2.925781 -4.390625 2.5625 -4.390625 L 1.359375 -4.390625 Z M 1.359375 -2.390625 "/></g></g><g style="fill:#140f54;fill-opacity:1;"><g transform="translate(199.287173, 232.263486)"><path style="stroke:none" d="M 0.734375 0 L 0.734375 -4.984375 L 1.3125 -4.984375 L 3.265625 -2.03125 L 5.21875 -4.984375 L 5.796875 -4.984375 L 5.796875 0 L 5.171875 0 L 5.171875 -3.8125 L 3.515625 -1.328125 L 3 -1.328125 L 1.359375 -3.8125 L 1.359375 0 Z M 0.734375 0 "/></g></g><g style="fill:#140f54;fill-opacity:1;"><g transform="translate(208.013098, 232.263486)"><path style="stroke:none" d="M 0.125 0 L 2.171875 -4.984375 L 2.75 -4.984375 L 4.8125 0 L 4.140625 0 L 3.671875 -1.140625 L 1.25 -1.140625 L 0.796875 0 Z M 1.484375 -1.71875 L 3.4375 -1.71875 L 2.46875 -4.109375 Z M 1.484375 -1.71875 "/></g></g><g style="fill:#140f54;fill-opacity:1;"><g transform="translate(215.143421, 232.263486)"><path style="stroke:none" d="M 1.9375 0 L 1.9375 -4.390625 L 0.25 -4.390625 L 0.25 -4.984375 L 4.234375 -4.984375 L 4.234375 -4.390625 L 2.5625 -4.390625 L 2.5625 0 Z M 1.9375 0 "/></g></g><g style="fill:#140f54;fill-opacity:1;"><g transform="translate(221.832106, 232.263486)"><path style="stroke:none" d="M 0.734375 0 L 0.734375 -4.984375 L 1.359375 -4.984375 L 1.359375 0 Z M 0.734375 0 "/></g></g><g style="fill:#140f54;fill-opacity:1;"><g transform="translate(226.113143, 232.263486)"><path style="stroke:none" d="M 3 0.09375 C 2.488281 0.09375 2.035156 -0.015625 1.640625 -0.234375 C 1.253906 -0.453125 0.953125 -0.753906 0.734375 -1.140625 C 0.515625 -1.535156 0.40625 -1.988281 0.40625 -2.5 C 0.40625 -3 0.515625 -3.441406 0.734375 -3.828125 C 0.953125 -4.222656 1.253906 -4.53125 1.640625 -4.75 C 2.035156 -4.96875 2.488281 -5.078125 3 -5.078125 C 3.5 -5.078125 3.941406 -4.96875 4.328125 -4.75 C 4.722656 -4.53125 5.03125 -4.222656 5.25 -3.828125 C 5.46875 -3.441406 5.578125 -3 5.578125 -2.5 C 5.578125 -1.988281 5.46875 -1.535156 5.25 -1.140625 C 5.03125 -0.753906 4.722656 -0.453125 4.328125 -0.234375 C 3.941406 -0.015625 3.5 0.09375 3 0.09375 Z M 1.046875 -2.5 C 1.046875 -2.113281 1.128906 -1.769531 1.296875 -1.46875 C 1.460938 -1.175781 1.691406 -0.945312 1.984375 -0.78125 C 2.273438 -0.613281 2.613281 -0.53125 3 -0.53125 C 3.375 -0.53125 3.707031 -0.613281 4 -0.78125 C 4.289062 -0.945312 4.519531 -1.175781 4.6875 -1.46875 C 4.851562 -1.769531 4.9375 -2.113281 4.9375 -2.5 C 4.9375 -2.882812 4.851562 -3.222656 4.6875 -3.515625 C 4.519531 -3.804688 4.289062 -4.035156 4 -4.203125 C 3.707031 -4.367188 3.375 -4.453125 3 -4.453125 C 2.613281 -4.453125 2.273438 -4.367188 1.984375 -4.203125 C 1.691406 -4.035156 1.460938 -3.804688 1.296875 -3.515625 C 1.128906 -3.222656 1.046875 -2.882812 1.046875 -2.5 Z M 1.046875 -2.5 "/></g></g><g style="fill:#140f54;fill-opacity:1;"><g transform="translate(234.297705, 232.263486)"><path style="stroke:none" d="M 0.734375 0 L 0.734375 -4.984375 L 1.3125 -4.984375 L 4.078125 -1.078125 L 4.078125 -4.984375 L 4.6875 -4.984375 L 4.6875 0 L 4.109375 0 L 1.34375 -3.90625 L 1.34375 0 Z M 0.734375 0 "/></g></g><g style="fill:#140f54;fill-opacity:1;"><g transform="translate(241.912409, 232.263486)"><path style="stroke:none" d=""/></g></g><g style="fill:#140f54;fill-opacity:1;"><g transform="translate(245.880026, 232.263486)"><path style="stroke:none" d="M 2.390625 0.09375 C 1.984375 0.09375 1.632812 0.0234375 1.34375 -0.109375 C 1.050781 -0.242188 0.828125 -0.429688 0.671875 -0.671875 C 0.515625 -0.921875 0.429688 -1.207031 0.421875 -1.53125 L 1.046875 -1.53125 C 1.054688 -1.207031 1.179688 -0.953125 1.421875 -0.765625 C 1.671875 -0.585938 1.992188 -0.5 2.390625 -0.5 C 2.742188 -0.5 3.019531 -0.566406 3.21875 -0.703125 C 3.425781 -0.847656 3.53125 -1.046875 3.53125 -1.296875 C 3.53125 -1.523438 3.429688 -1.707031 3.234375 -1.84375 C 3.035156 -1.988281 2.710938 -2.113281 2.265625 -2.21875 C 1.648438 -2.363281 1.195312 -2.550781 0.90625 -2.78125 C 0.625 -3.007812 0.484375 -3.316406 0.484375 -3.703125 C 0.484375 -4.128906 0.644531 -4.460938 0.96875 -4.703125 C 1.289062 -4.953125 1.722656 -5.078125 2.265625 -5.078125 C 2.828125 -5.078125 3.269531 -4.9375 3.59375 -4.65625 C 3.914062 -4.375 4.082031 -3.992188 4.09375 -3.515625 L 3.46875 -3.515625 C 3.46875 -3.816406 3.359375 -4.050781 3.140625 -4.21875 C 2.921875 -4.394531 2.628906 -4.484375 2.265625 -4.484375 C 1.910156 -4.484375 1.628906 -4.410156 1.421875 -4.265625 C 1.222656 -4.128906 1.125 -3.941406 1.125 -3.703125 C 1.125 -3.503906 1.21875 -3.332031 1.40625 -3.1875 C 1.59375 -3.050781 1.929688 -2.921875 2.421875 -2.796875 C 3.054688 -2.640625 3.507812 -2.441406 3.78125 -2.203125 C 4.050781 -1.972656 4.1875 -1.675781 4.1875 -1.3125 C 4.1875 -0.875 4.019531 -0.53125 3.6875 -0.28125 C 3.363281 -0.03125 2.929688 0.09375 2.390625 0.09375 Z M 2.390625 0.09375 "/></g></g><g style="fill:#140f54;fill-opacity:1;"><g transform="translate(252.689793, 232.263486)"><path style="stroke:none" d="M 1.9375 0 L 1.9375 -4.390625 L 0.25 -4.390625 L 0.25 -4.984375 L 4.234375 -4.984375 L 4.234375 -4.390625 L 2.5625 -4.390625 L 2.5625 0 Z M 1.9375 0 "/></g></g><g style="fill:#140f54;fill-opacity:1;"><g transform="translate(259.378487, 232.263486)"><path style="stroke:none" d="M 2.59375 0.078125 C 1.988281 0.078125 1.515625 -0.109375 1.171875 -0.484375 C 0.835938 -0.859375 0.671875 -1.375 0.671875 -2.03125 L 0.671875 -4.984375 L 1.296875 -4.984375 L 1.296875 -2.078125 C 1.296875 -1.566406 1.40625 -1.179688 1.625 -0.921875 C 1.84375 -0.660156 2.164062 -0.53125 2.59375 -0.53125 C 3.457031 -0.53125 3.890625 -1.046875 3.890625 -2.078125 L 3.890625 -4.984375 L 4.53125 -4.984375 L 4.53125 -2.03125 C 4.53125 -1.375 4.359375 -0.859375 4.015625 -0.484375 C 3.671875 -0.109375 3.195312 0.078125 2.59375 0.078125 Z M 2.59375 0.078125 "/></g></g><g style="fill:#140f54;fill-opacity:1;"><g transform="translate(266.772368, 232.263486)"><path style="stroke:none" d="M 0.734375 0 L 0.734375 -4.984375 L 2.453125 -4.984375 C 2.960938 -4.984375 3.410156 -4.878906 3.796875 -4.671875 C 4.179688 -4.460938 4.476562 -4.171875 4.6875 -3.796875 C 4.90625 -3.421875 5.015625 -2.988281 5.015625 -2.5 C 5.015625 -2.007812 4.90625 -1.578125 4.6875 -1.203125 C 4.476562 -0.828125 4.179688 -0.53125 3.796875 -0.3125 C 3.410156 -0.101562 2.960938 0 2.453125 0 Z M 1.359375 -0.59375 L 2.453125 -0.59375 C 2.828125 -0.59375 3.160156 -0.671875 3.453125 -0.828125 C 3.742188 -0.992188 3.96875 -1.21875 4.125 -1.5 C 4.289062 -1.789062 4.375 -2.125 4.375 -2.5 C 4.375 -2.875 4.289062 -3.203125 4.125 -3.484375 C 3.957031 -3.765625 3.726562 -3.984375 3.4375 -4.140625 C 3.144531 -4.304688 2.804688 -4.390625 2.421875 -4.390625 L 1.359375 -4.390625 Z M 1.359375 -0.59375 "/></g></g><g style="fill:#140f54;fill-opacity:1;"><g transform="translate(274.394192, 232.263486)"><path style="stroke:none" d="M 0.734375 0 L 0.734375 -4.984375 L 1.359375 -4.984375 L 1.359375 0 Z M 0.734375 0 "/></g></g><g style="fill:#140f54;fill-opacity:1;"><g transform="translate(278.675219, 232.263486)"><path style="stroke:none" d="M 3 0.09375 C 2.488281 0.09375 2.035156 -0.015625 1.640625 -0.234375 C 1.253906 -0.453125 0.953125 -0.753906 0.734375 -1.140625 C 0.515625 -1.535156 0.40625 -1.988281 0.40625 -2.5 C 0.40625 -3 0.515625 -3.441406 0.734375 -3.828125 C 0.953125 -4.222656 1.253906 -4.53125 1.640625 -4.75 C 2.035156 -4.96875 2.488281 -5.078125 3 -5.078125 C 3.5 -5.078125 3.941406 -4.96875 4.328125 -4.75 C 4.722656 -4.53125 5.03125 -4.222656 5.25 -3.828125 C 5.46875 -3.441406 5.578125 -3 5.578125 -2.5 C 5.578125 -1.988281 5.46875 -1.535156 5.25 -1.140625 C 5.03125 -0.753906 4.722656 -0.453125 4.328125 -0.234375 C 3.941406 -0.015625 3.5 0.09375 3 0.09375 Z M 1.046875 -2.5 C 1.046875 -2.113281 1.128906 -1.769531 1.296875 -1.46875 C 1.460938 -1.175781 1.691406 -0.945312 1.984375 -0.78125 C 2.273438 -0.613281 2.613281 -0.53125 3 -0.53125 C 3.375 -0.53125 3.707031 -0.613281 4 -0.78125 C 4.289062 -0.945312 4.519531 -1.175781 4.6875 -1.46875 C 4.851562 -1.769531 4.9375 -2.113281 4.9375 -2.5 C 4.9375 -2.882812 4.851562 -3.222656 4.6875 -3.515625 C 4.519531 -3.804688 4.289062 -4.035156 4 -4.203125 C 3.707031 -4.367188 3.375 -4.453125 3 -4.453125 C 2.613281 -4.453125 2.273438 -4.367188 1.984375 -4.203125 C 1.691406 -4.035156 1.460938 -3.804688 1.296875 -3.515625 C 1.128906 -3.222656 1.046875 -2.882812 1.046875 -2.5 Z M 1.046875 -2.5 "/></g></g></g></svg>